<svg width="75" height="75" viewBox="0 0 75 75" fill="none" xmlns="http://www.w3.org/2000/svg">
<rect y="17.5523" width="60" height="60" rx="10" transform="rotate(-17.01 0 17.5523)" fill="url(#paint0_radial_549_3310)"/>
<path d="M47.7458 48.1667C47.9363 48.7892 47.8229 49.3863 47.8968 50.0148L46.8195 50.8477C46.1715 51.3419 45.532 51.8629 44.8675 52.3029C43.5426 53.1811 41.9912 53.6557 40.4018 53.6691C39.4352 53.7407 38.4751 53.4633 37.6959 52.8869C36.9167 52.3106 36.3702 51.4736 36.1557 50.5284C35.8731 49.3932 35.7157 48.2306 35.6868 47.0611C35.6115 44.6867 35.6529 42.3061 35.4965 39.9566C35.4395 39.0787 35.1788 38.2264 34.7348 37.4669C34.6079 37.191 34.3938 36.9644 34.1257 36.8219C33.8575 36.6794 33.5499 36.6286 33.2502 36.6778C32.3704 36.7688 31.5296 37.0874 30.8102 37.602C30.5474 37.806 30.2637 37.9819 29.9643 38.1271C29.7821 37.5317 29.8872 36.9076 29.8382 36.3603C30.1391 36.0681 30.4632 35.8005 30.8071 35.5606C31.7221 34.7998 32.7037 34.1231 33.7401 33.5386C35.0497 32.8005 36.5554 32.4847 38.0512 32.6341C38.7385 32.7008 39.3941 32.9569 39.9448 33.3736C40.4955 33.7903 40.9195 34.3514 41.1705 34.9948C41.6689 36.1982 41.9232 37.4887 41.918 38.7913L42.1123 44.6514C42.1139 45.6206 42.1826 46.5885 42.3178 47.5482C42.3626 47.984 42.492 48.4071 42.6987 48.7934C42.8357 49.1265 43.0878 49.3992 43.4092 49.5617C43.7307 49.7242 44.0999 49.7657 44.4494 49.6785C45.2943 49.5493 46.0969 49.2225 46.7919 48.7248L47.7458 48.1667Z" fill="white"/>
<path d="M40.7936 26.0236C40.5328 26.6513 40.125 27.207 39.6047 27.6443C39.0843 28.0816 38.4666 28.3875 37.8034 28.5364C37.1451 28.7109 36.4526 28.709 35.7954 28.5307C35.1381 28.3525 34.5394 28.0043 34.0594 27.5212C33.5496 27.0237 33.198 26.3871 33.0481 25.6906C32.8983 24.9942 32.9568 24.2692 33.2168 23.606C33.458 23.0238 33.8249 22.5019 34.2914 22.0781C34.7579 21.6543 35.3124 21.3388 35.915 21.1544C36.5177 20.97 37.1538 20.9214 37.7776 21.0116C38.4013 21.1019 38.9974 21.3291 39.5231 21.6768C40.1932 22.1526 40.6832 22.8405 40.9138 23.6294C41.1444 24.4183 41.102 25.2618 40.7936 26.0236Z" fill="white"/>
<defs>
<radialGradient id="paint0_radial_549_3310" cx="0" cy="0" r="1" gradientUnits="userSpaceOnUse" gradientTransform="translate(32.0699 18.54) rotate(92.0089) scale(59.0486)">
<stop offset="0.272239" stop-color="#B19AFD"/>
<stop offset="0.863698" stop-color="#6A5C97"/>
</radialGradient>
</defs>
</svg>
